<svg id="fabrica-software-senior" xmlns="http://www.w3.org/2000/svg" width="1190.423" height="468.844" viewBox="0 0 1190.423 468.844">
  <g id="icone-camiseta-fabricadesoftware" transform="translate(0)">
    <path id="Fill-1" d="M88.594,146.268h-.105a13.322,13.322,0,0,1-10.964-6.122c-.273-.425-.485-.8-.676-1.161a14.633,14.633,0,0,1-.863-10.906c1.088-3.833,3.3-6.734,5.248-9.3,2.278-2.988,3.567-4.794,3.567-7.092,0-8.494-5.607-12.8-16.666-12.8s-16.665,4.3-16.665,12.8c0,2.3,1.289,4.1,3.565,7.092,1.951,2.563,4.163,5.463,5.253,9.3a14.624,14.624,0,0,1-.82,10.815c-.215.409-.44.8-.683,1.179a13.355,13.355,0,0,1-11,6.186,7.521,7.521,0,0,1-7.338-7.341,7.417,7.417,0,0,1,5.62-7.365,23.346,23.346,0,0,0-2.415-3.592C40.843,124.29,37,119.243,37,111.692,37,94.612,48.93,84,68.134,84s31.134,10.612,31.134,27.692c0,7.552-3.84,12.593-6.647,16.279a26.6,26.6,0,0,0-2.46,3.584,7.47,7.47,0,0,1-1.568,14.714" transform="translate(98.525 223.679)" fill="#099" fill-rule="evenodd"/>
    <path id="Fill-3" d="M102.321,128.357l39.94,28.025,29.474-40.706a14.362,14.362,0,0,1,11.742-5.7,13.662,13.662,0,0,1,1.476.121,14.431,14.431,0,0,1,9.39,5.562c2.51,3.137,3.567,6.659,4.5,9.77,1.089,3.636,1.8,5.755,3.69,7.085,7,4.907,13.942,2.716,20.634-6.517s6.526-16.411-.475-21.325c-1.895-1.327-4.159-1.3-8.007-1.124-3.289.151-7.019.311-10.844-.995a13.694,13.694,0,0,1-9-8.25,13.583,13.583,0,0,1,1.586-12.72l30.486-42.092a151.551,151.551,0,0,0-40.893-17.869,21.341,21.341,0,0,1-3.921,12.5c-6.833,9.433-15.339,11.463-21.269,11.5-6.95-.023-14.3-2.569-21.424-7.568-8.233-5.774-13.4-12.911-15-20.4A152.281,152.281,0,0,0,25.156,74.212l39.585,27.781a24.445,24.445,0,0,0,.032-4.143c-.216-4.66-.51-11.043,3.926-17.169,6.828-9.433,15.337-11.463,21.268-11.506,6.783.087,14.3,2.57,21.424,7.566,16.294,11.434,20.182,27.148,10.149,41.01-4.438,6.129-10.666,7.937-15.212,9.256a30.549,30.549,0,0,0-4.006,1.35m41.7,45.8a7.591,7.591,0,0,1-4.37-1.379l-47.49-33.32A13.71,13.71,0,0,1,86.364,127.9a13.958,13.958,0,0,1,.123-1.455,14.13,14.13,0,0,1,5.651-9.241c3.186-2.471,6.765-3.511,9.923-4.428,3.693-1.072,5.846-1.769,7.2-3.634,4.988-6.9,2.763-13.726-6.62-20.312-4.425-3.1-8.856-4.809-12.486-4.809h-.08c-2.277.016-5.693.579-9.094,5.278-1.351,1.865-1.318,4.1-1.144,7.88.15,3.238.317,6.908-1.012,10.671a14.243,14.243,0,0,1-7.044,8.289c-.44.216-.883.407-1.335.578a14.154,14.154,0,0,1-12.922-1.561L10.165,81.918a7.347,7.347,0,0,1-1.8-10.3A167.461,167.461,0,0,1,130.629,2.028,8.263,8.263,0,0,1,137.115,4.5a7.762,7.762,0,0,1,1.98,6.6c-1.169,6.587,5.173,12.139,9.057,14.865,4.425,3.1,8.856,4.812,12.486,4.812a.61.61,0,0,0,.078,0c2.277-.015,5.7-.579,9.1-5.275,1.23-1.7,1.207-3.781,1.06-7.32a40.5,40.5,0,0,1,.055-5.967A8.07,8.07,0,0,1,174.283,6.5a8.371,8.371,0,0,1,6.612-1.4,167,167,0,0,1,61,26.417,7.411,7.411,0,0,1,3.08,4.82,7.336,7.336,0,0,1-1.293,5.548l-33.9,46.794a24.738,24.738,0,0,0,4.207.031c4.746-.211,11.22-.5,17.445,3.866,14.084,9.879,15.616,25.983,4,42.023S207.866,154.47,193.78,144.6c-6.223-4.367-8.062-10.5-9.4-14.971a29.393,29.393,0,0,0-1.373-3.947l-32.843,45.359a7.567,7.567,0,0,1-6.145,3.115" transform="translate(18.64 5.326)" fill="#099" fill-rule="evenodd"/>
    <path id="Fill-5" d="M60.68,146l40.5,29.261a13.951,13.951,0,0,1,5.552,13.125,14.321,14.321,0,0,1-5.538,9.326c-3.116,2.489-6.62,3.538-9.713,4.464-3.617,1.079-5.725,1.784-7.048,3.664-4.888,6.953-2.705,13.846,6.483,20.489s16.325,6.471,21.213-.475c1.322-1.883,1.289-4.132,1.118-7.953-.146-3.266-.311-6.966.991-10.762a14.266,14.266,0,0,1,6.9-8.359c.433-.218.866-.411,1.309-.583a13.533,13.533,0,0,1,12.654,1.576l41.876,30.266a150.336,150.336,0,0,0,17.777-40.6,21.235,21.235,0,0,1-12.433-3.893c-9.386-6.783-11.4-15.227-11.446-21.116-.046-6.845,2.556-14.2,7.53-21.271,5.637-8.022,13.27-13.214,21.179-14.739C194.187,88.633,173.76,52,143.615,28.04l-28.826,40.99a23.52,23.52,0,0,0,4.12.031c4.647-.213,10.986-.5,17.083,3.9,13.792,9.964,15.291,26.207,3.916,42.385s-27,20.041-40.8,10.077c-6.094-4.4-7.895-10.587-9.208-15.1a30.1,30.1,0,0,0-1.343-3.981ZM178.866,248.085a7.3,7.3,0,0,1-4.284-1.39l-46.556-33.65a25.366,25.366,0,0,0-.031,4.177c.212,4.7.5,11.138-3.846,17.317-9.824,13.988-25.839,15.513-41.806,3.977S62.578,211.135,72.4,197.15c4.346-6.179,10.442-8,14.9-9.336a29.121,29.121,0,0,0,3.925-1.362L46.1,153.843A7.549,7.549,0,0,1,44.372,143.4L77.52,96.254a13.926,13.926,0,0,1,11.5-5.753,13.008,13.008,0,0,1,1.447.122,14.058,14.058,0,0,1,9.2,5.609c2.458,3.164,3.493,6.718,4.406,9.854,1.065,3.667,1.76,5.8,3.614,7.146,6.858,4.951,13.654,2.739,20.206-6.573s6.392-16.553-.464-21.508c-1.851-1.338-4.063-1.3-7.843-1.134-3.221.152-6.872.314-10.618-1a14.169,14.169,0,0,1-8.245-6.994c-.215-.437-.405-.878-.575-1.325A14.039,14.039,0,0,1,101.7,61.865l34.261-48.723a7.315,7.315,0,0,1,10.252-1.782C185.076,39,210.841,85.095,215.128,134.666a8.227,8.227,0,0,1-2.459,6.443,7.773,7.773,0,0,1-6.568,1.962c-5.147-.913-11.293,2.536-15.68,8.775-3.109,4.426-4.81,8.857-4.784,12.476.015,2.261.578,5.656,5.25,9.034,1.686,1.221,3.752,1.191,7.279,1.051a40.681,40.681,0,0,1,5.941.058,8,8,0,0,1,5.669,3.312,8.323,8.323,0,0,1,1.4,6.58,165.586,165.586,0,0,1-26.28,60.566,7.359,7.359,0,0,1-4.792,3.056,7.1,7.1,0,0,1-1.236.106Z" transform="translate(114.502 26.628)" fill="#099" fill-rule="evenodd"/>
    <path id="Fill-7" d="M15.819,138.682c5.383,40.567,25.1,76.386,55.119,100.153l28.231-39.951a25.289,25.289,0,0,0-4.2-.035c-4.707.224-11.167.511-17.362-3.939-14.021-10.081-15.55-26.508-3.983-42.873s27.45-20.275,41.477-10.193c6.2,4.459,8.028,10.712,9.362,15.275a30.641,30.641,0,0,0,1.365,4.025l28.346-40.111-41.171-29.6a14.1,14.1,0,0,1-5.769-11.79,13.726,13.726,0,0,1,.122-1.486,14.481,14.481,0,0,1,5.625-9.43c3.172-2.519,6.737-3.581,9.882-4.515,3.677-1.093,5.82-1.8,7.166-3.707,4.966-7.034,2.75-14-6.592-20.722-4.405-3.165-8.817-4.906-12.432-4.906h-.079c-2.267.017-5.67.591-9.054,5.385-1.345,1.9-1.314,4.18-1.14,8.039.149,3.3.318,7.048-1.006,10.89a14.442,14.442,0,0,1-7.014,8.453c-.439.22-.879.416-1.331.589a13.8,13.8,0,0,1-12.864-1.592L37.647,37.252A174.336,174.336,0,0,0,20.8,76.962,21.65,21.65,0,0,1,33.386,80.9c9.541,6.861,11.593,15.4,11.636,21.358.046,6.924-2.6,14.362-7.654,21.515-5.736,8.119-13.5,13.373-21.549,14.91ZM72.6,257.085a7.442,7.442,0,0,1-4.3-1.372C29.328,228.143,4.443,183.183.026,132.36a8.289,8.289,0,0,1,2.5-6.514A7.892,7.892,0,0,1,9.2,123.859c5.243.933,11.482-2.562,15.94-8.876,3.161-4.475,4.892-8.957,4.864-12.62-.015-2.287-.586-5.721-5.337-9.136-1.718-1.235-3.826-1.214-7.4-1.063a42.021,42.021,0,0,1-6.039-.058,8.149,8.149,0,0,1-5.767-3.35A8.388,8.388,0,0,1,4.044,82.1c5.034-23.517,17-48.519,25.7-60.1a7.465,7.465,0,0,1,10.338-1.593L85.708,53.215a25.728,25.728,0,0,0,.033-4.227c-.215-4.754-.508-11.266,3.909-17.516,6.8-9.625,15.27-11.695,21.175-11.738,7.04.008,14.241,2.622,21.33,7.719,16.222,11.665,20.094,27.7,10.1,41.839-4.417,6.253-10.618,8.1-15.144,9.443a29.7,29.7,0,0,0-3.99,1.377L169,113.1a7.609,7.609,0,0,1,1.754,10.558l-33.7,47.694a14.1,14.1,0,0,1-11.7,5.816,12.91,12.91,0,0,1-1.461-.122,14.316,14.316,0,0,1-9.354-5.677c-2.494-3.2-3.546-6.791-4.475-9.962-1.084-3.709-1.789-5.872-3.677-7.23-6.971-5.006-13.882-2.773-20.541,6.65s-6.5,16.743.472,21.756c1.882,1.355,4.136,1.314,7.97,1.145,3.277-.15,6.99-.322,10.8,1.018a14.372,14.372,0,0,1,8.377,7.066,15.1,15.1,0,0,1,.6,1.394,14.126,14.126,0,0,1-1.6,12.933L78.721,253.908a7.479,7.479,0,0,1-6.118,3.177Z" transform="translate(0 50.594)" fill="#099" fill-rule="evenodd"/>
    <path id="Fill-9" d="M177.438,140.954H40.377C29.692,140.954,21,132.515,21,122.139v-6.323C21,105.439,29.692,97,40.377,97h47.6a7.193,7.193,0,1,1,0,14.379h-47.6a4.511,4.511,0,0,0-4.572,4.437v6.323a4.511,4.511,0,0,0,4.572,4.437h137.06a4.511,4.511,0,0,0,4.572-4.437v-6.323a4.511,4.511,0,0,0-4.572-4.437h-47.6a7.193,7.193,0,1,1,0-14.379h47.6c10.685,0,19.379,8.439,19.379,18.816v6.323c0,10.376-8.694,18.816-19.379,18.816" transform="translate(55.92 258.296)" fill="#099" fill-rule="evenodd"/>
    <path id="Fill-11" d="M44.11,120.378a4.478,4.478,0,0,0-4.509,4.437v6.321a4.479,4.479,0,0,0,4.509,4.441H156.069a4.478,4.478,0,0,0,4.506-4.441v-6.321a4.477,4.477,0,0,0-4.506-4.437Zm111.959,29.576H44.11A18.988,18.988,0,0,1,25,131.135v-6.321A18.985,18.985,0,0,1,44.11,106H156.069a18.983,18.983,0,0,1,19.107,18.814v6.321a18.986,18.986,0,0,1-19.107,18.819Z" transform="translate(66.571 282.261)" fill="#099" fill-rule="evenodd"/>
    <path id="Fill-13" d="M45.673,127.379a4.548,4.548,0,0,0-4.642,4.437v6.323a4.548,4.548,0,0,0,4.642,4.437h96.179a4.546,4.546,0,0,0,4.64-4.437v-6.323a4.546,4.546,0,0,0-4.64-4.437Zm96.179,29.575H45.673C34.826,156.954,26,148.515,26,138.138v-6.323C26,121.439,34.826,113,45.673,113h96.179c10.847,0,19.673,8.439,19.673,18.816v6.323c0,10.376-8.826,18.816-19.673,18.816Z" transform="translate(69.234 300.901)" fill="#099" fill-rule="evenodd"/>
    <path id="Fill-15" d="M38.221,165.245c-4.448,0-8.053-3.182-8.053-7.107l.018-44.005c.082-9.262.121-13.491-10.044-20.392a6.566,6.566,0,0,1-1.47-9.966,8.779,8.779,0,0,1,11.292-1.3c16.51,11.213,16.418,21.663,16.325,31.769l-.016,2.435v41.458c0,3.925-3.6,7.107-8.052,7.107" transform="translate(45.268 215.69)" fill="#099" fill-rule="evenodd"/>
    <path id="Fill-17" d="M73.1,195.537a7.284,7.284,0,0,1-7.073-7.478l-.014-46.189c-.081-10.636-.162-21.632,14.34-33.432A148.732,148.732,0,0,0,111.6,74.411a6.837,6.837,0,0,1,9.783-2.2,7.735,7.735,0,0,1,2.084,10.34,161.874,161.874,0,0,1-34.549,37.794c-8.865,7.21-8.83,11.659-8.758,21.406l.016,2.681v43.627a7.285,7.285,0,0,1-7.074,7.478" transform="translate(175.748 189.062)" fill="#099" fill-rule="evenodd"/>
    <path id="Fill-19" d="M128.8,60.456h37.75q4.342,0,4.34,4.227c0,2.973-1.445,4.385-4.34,4.385H128.8v37.264q0,4.227-4.819,4.228c-3.374,0-4.983-1.41-4.983-4.228V13.167C119,9.567,120.609,8,124.3,8h45.3q4.337,0,4.338,4.23c0,2.973-1.447,4.383-4.338,4.383H128.8Z" transform="translate(316.878 21.303)" fill="#099" fill-rule="evenodd"/>
    <path id="Fill-21" d="M167.06,17.321c0-2.086,1.521-3.208,4.874-5.613l12.8-9.3C187.015.8,188.233,0,189.6,0c2.589,0,3.959,2.728,3.959,4.811,0,1.926-1.219,3.208-11.12,9.784-8.836,5.934-10.511,6.738-11.883,6.738-2.132,0-3.5-2.086-3.5-4.012ZM195.7,96.23,176.351,42.18,156.7,96.23Zm22.547,36.407c0,1.765-1.067,2.888-4.266,2.888-3.353,0-4.723-1.282-5.638-4.01l-9.595-26.625H153.5l-9.75,26.625c-1.065,2.728-2.285,4.01-5.638,4.01-3.047,0-4.112-1.123-4.112-2.888a10.033,10.033,0,0,1,.914-3.687l35.038-93.985c1.524-4.008,3.046-5.454,6.7-5.454,3.5,0,5.179,1.446,6.55,5.454l34.277,93.985a14.325,14.325,0,0,1,.764,3.687Z" transform="translate(356.821 0)" fill="#099" fill-rule="evenodd"/>
    <path id="Fill-23" d="M216.27,84.787c0-8.8-4.544-16.314-14.7-19.675a46.994,46.994,0,0,0-14.844-2.239H173.09v41.751a82.229,82.229,0,0,0,12.727.96c22.422,0,30.453-8.64,30.453-20.8M173.09,17.6V54.873h13.332a40.525,40.525,0,0,0,13.638-2.081c8.484-3.2,12.42-9.757,12.42-17.595,0-11.2-8.028-18.557-27.269-18.557a78.8,78.8,0,0,0-12.121.959m53.178,67.669c0,17.118-12.725,28.954-40.6,28.954-5.909,0-12.422-.48-16.363-1.439-5.3-1.28-5.3-3.84-5.3-7.679V17.12c0-4,0-6.237,5.3-7.678C172.939,8.482,179.908,8,185.666,8c24.7,0,36.818,10.08,36.818,26.236,0,12-6.667,20.957-21.061,24.157,16.059,2.879,24.846,12.639,24.846,26.876" transform="translate(436.706 21.303)" fill="#099" fill-rule="evenodd"/>
    <path id="Fill-25" d="M204.163,65.122c22.759,0,33.892-9.144,33.892-24.549,0-16.367-12.444-23.905-31.273-23.905a76.579,76.579,0,0,0-11.956.96V64.641a90.44,90.44,0,0,0,9.337.482m50.431,46.373c0,1.763-1.309,2.728-4.582,2.728-4.256,0-5.731-1.445-7.861-4.654L215.626,72.823a88.4,88.4,0,0,1-11.792.8c-1.8,0-6.55-.162-9.007-.48V109.89q0,4.332-4.911,4.333T185,109.89V17.147c0-4.172,0-6.258,5.734-7.7C194.663,8.482,201.378,8,206.947,8,231.837,8,248.7,18.912,248.7,40.254c0,14.761-8.186,25.352-23.09,30.325l26.034,35.461c2.3,3.049,2.949,4.171,2.949,5.455" transform="translate(492.626 21.303)" fill="#099" fill-rule="evenodd"/>
    <path id="Fill-27" d="M219.989,109.876q0,4.345-5.4,4.346c-3.779,0-5.584-1.449-5.584-4.346V12.344C209,9.448,210.8,8,214.584,8q5.41,0,5.4,4.344Z" transform="translate(556.534 21.303)" fill="#099" fill-rule="evenodd"/>
    <path id="Fill-29" d="M266.954,105.555a37.7,37.7,0,0,0,20.825-5.833c3.333-2.206,4.927-3.94,6.514-3.94,2.226,0,4.29,2.521,4.29,4.412,0,2.521-3.176,4.73-6.038,6.621-6.994,4.727-15.734,7.408-25.906,7.408C237.072,114.222,218,92.63,218,60.638,218,28.487,237.233,8,266.477,8a48.089,48.089,0,0,1,26.067,7.248c3.974,2.364,6.038,4.573,6.038,6.463,0,2.048-2.223,4.57-4.446,4.57-1.431,0-3.182-1.735-6.518-3.783a39.363,39.363,0,0,0-20.98-5.829c-22.887,0-38.467,16.231-38.467,43.5,0,27.578,15.895,45.388,38.783,45.388" transform="translate(580.499 21.303)" fill="#099" fill-rule="evenodd"/>
    <path id="Fill-31" d="M304.7,74.851,285.349,20.7,265.7,74.851Zm22.547,36.478c0,1.769-1.065,2.894-4.266,2.894-3.353,0-4.725-1.285-5.638-4.018l-9.6-26.677H262.5L252.75,110.2c-1.065,2.733-2.285,4.018-5.636,4.018-3.049,0-4.114-1.125-4.114-2.894a10.138,10.138,0,0,1,.912-3.7l35.041-94.169C280.473,9.447,282,8,285.656,8c3.5,0,5.182,1.447,6.549,5.463l34.277,94.169a14.484,14.484,0,0,1,.764,3.7Z" transform="translate(647.07 21.303)" fill="#099" fill-rule="evenodd"/>
    <path id="Fill-33" d="M303.866,105.586c31.067,0,47.468-15.517,47.468-44.475,0-29.274-16.72-44.47-47.468-44.47a95.564,95.564,0,0,0-13.246.957v87.025a92.208,92.208,0,0,0,13.246.962m0,8.637c-6.148,0-13.246-.479-17.347-1.439C281,111.5,281,108.945,281,105.264V16.958c0-3.358,0-6.4,5.519-7.518A103.407,103.407,0,0,1,304.179,8c36.9,0,57.4,18.557,57.4,52.793,0,34.873-21.445,53.43-57.717,53.43" transform="translate(748.258 21.303)" fill="#099" fill-rule="evenodd"/>
    <path id="Fill-35" d="M355.883,52.81q4.221,0,4.221,4.261t-4.221,4.259H318.377v40.553h45.006q4.221,0,4.223,4.259c0,3-1.409,4.417-4.223,4.417H314.158c-3.593,0-5.158-1.577-5.158-5.206V13.206C309,9.577,310.565,8,314.158,8h47.665q4.215,0,4.219,4.261c0,3-1.409,4.417-4.219,4.417H318.377V52.81Z" transform="translate(822.818 21.303)" fill="#099" fill-rule="evenodd"/>
    <path id="Fill-37" d="M120.395,79.161C120.395,63.243,132.518,53,150.78,53a39.2,39.2,0,0,1,22.6,6.619c3.3,2.206,4.791,3.94,4.791,5.831,0,2.048-1.8,4.727-4.041,4.727-1.348,0-3.145-1.575-5.089-2.837-5.688-3.625-11.228-5.672-18.413-5.672-13.022,0-20.956,6.933-20.956,16.861,0,24.428,50.6,18.124,50.6,52.01,0,18.124-14.37,28.682-32.781,28.682a39.5,39.5,0,0,1-25-8.352c-2.842-2.206-4.488-4.254-4.488-5.989,0-2.208,1.944-4.729,4.19-4.729,1.495,0,2.395,1.1,5.686,3.469,5.69,4.254,11.827,6.933,19.758,6.933,13.173,0,23.2-7.564,23.2-19.384,0-26.634-50.443-20.018-50.443-52.01" transform="translate(314.215 141.131)" fill="#099" fill-rule="evenodd"/>
    <path id="Fill-39" d="M188.368,150.712c23.646,0,39.143-17.651,39.143-44.6s-15.5-44.6-39.143-44.6-39.143,17.651-39.143,44.6,15.5,44.6,39.143,44.6m0-97.712c29.875,0,49.528,21.118,49.528,53.11s-19.653,53.112-49.528,53.112S139,138.1,139,106.11,158.495,53,188.368,53" transform="translate(370.135 141.131)" fill="#099" fill-rule="evenodd"/>
    <path id="Fill-41" d="M179.8,106.454h37.755q4.335,0,4.337,4.227c0,2.975-1.447,4.385-4.337,4.385H179.8V152.33q0,4.227-4.819,4.23c-3.375,0-4.98-1.412-4.98-4.23V59.165c0-3.6,1.6-5.165,5.3-5.165h45.306q4.337,0,4.337,4.228c0,2.973-1.445,4.383-4.337,4.383H179.8Z" transform="translate(452.683 143.793)" fill="#099" fill-rule="evenodd"/>
    <path id="Fill-43" d="M234.19,152.33c0,2.818-1.578,4.23-4.9,4.23s-4.9-1.412-4.9-4.23V62.612H193.267c-2.842,0-4.267-1.41-4.267-4.383Q189,54,193.267,54h72.051q4.271,0,4.265,4.228c0,2.973-1.418,4.383-4.265,4.383H234.19Z" transform="translate(503.277 143.793)" fill="#099" fill-rule="evenodd"/>
    <path id="Fill-45" d="M252.841,153.921c-1.147,3.532-2.452,5.3-6.86,5.3-4.571,0-6.041-1.769-6.857-5.3L213.489,59.587A27.6,27.6,0,0,1,213,56.214c0-1.61.977-3.214,4.9-3.214,3.594,0,5.061,1.286,5.878,4.659l22.859,88.224L274.4,62.962c.977-3.375,2.612-5.144,6.695-5.144s5.549,1.769,6.691,5.144l26.779,82.921L338.4,57.659c.812-3.214,1.959-4.659,5.55-4.659s4.573,1.445,4.573,3.214a13.021,13.021,0,0,1-.49,3.373l-26.291,94.334c-.977,3.532-2.447,5.3-6.855,5.3s-5.878-1.769-7.025-5.3L280.927,71Z" transform="translate(567.185 141.131)" fill="#099" fill-rule="evenodd"/>
    <path id="Fill-47" d="M311.7,119.85,292.352,65.695,272.7,119.85Zm22.546,36.477c0,1.768-1.07,2.9-4.266,2.9-3.353,0-4.722-1.286-5.638-4.019l-9.6-26.676H269.5L259.75,155.2c-1.065,2.733-2.285,4.019-5.636,4.019-3.048,0-4.114-1.127-4.114-2.9a10.032,10.032,0,0,1,.916-3.695l35.036-94.167C287.478,54.449,289,53,292.655,53c3.5,0,5.178,1.449,6.549,5.465l34.278,94.167a14.285,14.285,0,0,1,.763,3.695Z" transform="translate(665.71 141.131)" fill="#099" fill-rule="evenodd"/>
    <path id="Fill-49" d="M297.161,110.121c22.76,0,33.894-9.144,33.894-24.549,0-16.366-12.445-23.905-31.274-23.905a76.582,76.582,0,0,0-11.955.96v47.014a91.436,91.436,0,0,0,9.335.48m50.434,46.372c0,1.764-1.309,2.729-4.582,2.729-4.256,0-5.731-1.446-7.861-4.656l-26.526-36.745a88.386,88.386,0,0,1-11.79.8c-1.806,0-6.55-.162-9.01-.48v36.741q0,4.332-4.912,4.335T278,154.888V62.147c0-4.172,0-6.258,5.734-7.7,3.93-.963,10.641-1.445,16.21-1.445C324.836,53,341.7,63.912,341.7,85.253c0,14.761-8.187,25.35-23.091,30.327l26.035,35.459c2.3,3.049,2.949,4.171,2.949,5.455" transform="translate(740.27 141.131)" fill="#099" fill-rule="evenodd"/>
    <path id="Fill-51" d="M348.884,98.812q4.225,0,4.219,4.261t-4.219,4.258H311.376v40.553h45.011q4.222,0,4.219,4.261c0,2.995-1.4,4.415-4.219,4.415H307.159c-3.593,0-5.159-1.575-5.159-5.206V59.206c0-3.628,1.566-5.206,5.159-5.206h47.668q4.216,0,4.218,4.261c0,3-1.407,4.419-4.218,4.419H311.376V98.812Z" transform="translate(804.178 143.793)" fill="#099" fill-rule="evenodd"/>
    <path id="Fill-53" d="M120.395,125.16c0-15.918,12.124-26.16,30.385-26.16a39.2,39.2,0,0,1,22.6,6.618c3.3,2.208,4.791,3.939,4.791,5.831,0,2.045-1.8,4.727-4.041,4.727-1.348,0-3.145-1.575-5.089-2.837-5.688-3.627-11.228-5.673-18.413-5.673-13.022,0-20.956,6.935-20.956,16.863,0,24.428,50.6,18.124,50.6,52.009,0,18.126-14.37,28.684-32.781,28.684a39.478,39.478,0,0,1-25-8.354c-2.842-2.2-4.488-4.254-4.488-5.986,0-2.211,1.944-4.731,4.19-4.731,1.495,0,2.395,1.105,5.686,3.468,5.69,4.256,11.827,6.937,19.758,6.937,13.173,0,23.2-7.566,23.2-19.386,0-26.636-50.443-20.018-50.443-52.011" transform="translate(314.215 263.621)" fill="#099" fill-rule="evenodd"/>
    <path id="Fill-55" d="M187.885,142.814q4.217,0,4.218,4.259t-4.218,4.259H150.377v40.55h45.008q4.217,0,4.22,4.261c0,3-1.409,4.417-4.22,4.417H146.157c-3.6,0-5.157-1.579-5.157-5.208V103.208C141,99.58,142.56,98,146.157,98h47.665q4.222,0,4.22,4.264c0,3-1.406,4.417-4.22,4.417H150.377v36.133Z" transform="translate(375.461 260.958)" fill="#099" fill-rule="evenodd"/>
    <path id="Fill-57" d="M171.359,200.878c0,2.9-1.586,4.344-4.6,4.344q-4.759,0-4.76-4.344V104.631c0-3.863,2.063-5.631,6.188-5.631,4.439,0,6.661,2.088,8.726,5.47l56.312,86.107V103.344q0-4.343,4.758-4.344c3.016,0,4.6,1.449,4.6,4.344v96.247c0,3.861-1.9,5.631-5.711,5.631-3.964,0-6.185-2.093-8.405-5.794l-57.107-86.753Z" transform="translate(431.38 263.621)" fill="#099" fill-rule="evenodd"/>
    <path id="Fill-59" d="M201.989,200.878q0,4.343-5.4,4.344c-3.784,0-5.585-1.449-5.585-4.344V103.344c0-2.9,1.8-4.344,5.585-4.344q5.406,0,5.4,4.344Z" transform="translate(508.603 263.621)" fill="#099" fill-rule="evenodd"/>
    <path id="Fill-61" d="M247.367,196.71c23.646,0,39.145-17.651,39.145-44.6s-15.5-44.6-39.145-44.6-39.143,17.651-39.143,44.6,15.5,44.6,39.143,44.6m0-97.71c29.875,0,49.53,21.116,49.53,53.107s-19.655,53.115-49.53,53.115S198,184.1,198,152.107,217.493,99,247.367,99" transform="translate(527.243 263.621)" fill="#099" fill-rule="evenodd"/>
    <path id="Fill-63" d="M250.16,156.121c22.761,0,33.895-9.142,33.895-24.545,0-16.37-12.445-23.908-31.274-23.908a76.393,76.393,0,0,0-11.955.962v47.012a90.472,90.472,0,0,0,9.334.48m50.434,46.372c0,1.764-1.309,2.729-4.584,2.729-4.255,0-5.729-1.445-7.861-4.656l-26.524-36.745a88.667,88.667,0,0,1-11.789.8c-1.805,0-6.55-.162-9.01-.48v36.745q0,4.33-4.912,4.331T231,200.891V108.147c0-4.174,0-6.258,5.736-7.7,3.93-.96,10.64-1.445,16.209-1.445,24.891,0,41.754,10.912,41.754,32.253,0,14.761-8.185,25.348-23.089,30.327l26.034,35.461c2.3,3.047,2.949,4.169,2.949,5.453" transform="translate(615.116 263.621)" fill="#099" fill-rule="evenodd"/>
  </g>
</svg>
