<svg xmlns="http://www.w3.org/2000/svg" width="149.586" height="58.914" viewBox="0 0 149.586 58.914">
    <defs>
        <style>
            .cls-1{fill:#fff;fill-rule:evenodd}
        </style>
    </defs>
    <g id="logo-fsw_1_" data-name="logo-fsw (1)">
        <g id="fabrica-software-senior">
            <g id="icone-camiseta-fabricadesoftware">
                <path id="Fill-1" d="M43.483 91.824h-.013a1.674 1.674 0 0 1-1.378-.769 1.855 1.855 0 0 1-.085-.146 1.839 1.839 0 0 1-.108-1.37 3.5 3.5 0 0 1 .659-1.168c.286-.375.448-.6.448-.891 0-1.067-.7-1.608-2.094-1.608s-2.094.541-2.094 1.608c0 .289.162.516.448.891a3.493 3.493 0 0 1 .66 1.169 1.838 1.838 0 0 1-.1 1.359c-.027.051-.055.1-.086.148a1.678 1.678 0 0 1-1.383.777.945.945 0 0 1-.922-.923.932.932 0 0 1 .706-.925 2.934 2.934 0 0 0-.3-.451A3.251 3.251 0 0 1 37 87.48c0-2.147 1.5-3.48 3.912-3.48s3.912 1.333 3.912 3.48a3.25 3.25 0 0 1-.835 2.046 3.342 3.342 0 0 0-.309.45.939.939 0 0 1-.2 1.849" class="cls-1" transform="translate(-19.97 -45.338)"/>
                <path id="Fill-3" d="M18.978 17.878L24 21.4l3.7-5.115a1.8 1.8 0 0 1 1.475-.717 1.717 1.717 0 0 1 .185.015 1.813 1.813 0 0 1 1.18.7 3.434 3.434 0 0 1 .565 1.228c.137.457.226.723.464.89.88.617 1.752.341 2.593-.819s.82-2.062-.06-2.68a1.563 1.563 0 0 0-1.002-.142 3.57 3.57 0 0 1-1.363-.125A1.721 1.721 0 0 1 30.6 13.6a1.707 1.707 0 0 1 .2-1.6l3.831-5.289a19.044 19.044 0 0 0-5.139-2.245A2.682 2.682 0 0 1 29 6.036a3.238 3.238 0 0 1-2.673 1.446 4.759 4.759 0 0 1-2.692-.951 4.348 4.348 0 0 1-1.885-2.563 19.135 19.135 0 0 0-12.469 7.106l4.974 3.491a3.072 3.072 0 0 0 0-.521 3.154 3.154 0 0 1 .493-2.157 3.238 3.238 0 0 1 2.672-1.446 4.876 4.876 0 0 1 2.692.951c2.048 1.437 2.536 3.411 1.275 5.153a3.256 3.256 0 0 1-1.912 1.163 3.839 3.839 0 0 0-.5.17m5.24 5.755a.954.954 0 0 1-.549-.173L17.7 19.272a1.723 1.723 0 0 1-.728-1.452 1.754 1.754 0 0 1 .015-.183 1.776 1.776 0 0 1 .71-1.161 3.539 3.539 0 0 1 1.247-.556c.464-.135.735-.222.9-.457.627-.866.347-1.725-.832-2.552a2.905 2.905 0 0 0-1.569-.6h-.01a1.345 1.345 0 0 0-1.143.663 1.494 1.494 0 0 0-.144.99 3.408 3.408 0 0 1-.127 1.341 1.79 1.79 0 0 1-.885 1.042 2.079 2.079 0 0 1-.168.073 1.779 1.779 0 0 1-1.624-.2L7.4 12.042a.923.923 0 0 1-.226-1.295A21.043 21.043 0 0 1 22.535 2a1.038 1.038 0 0 1 .815.31.975.975 0 0 1 .249.83c-.147.828.65 1.525 1.138 1.868a2.9 2.9 0 0 0 1.569.6h.01a1.346 1.346 0 0 0 1.143-.663 1.412 1.412 0 0 0 .133-.92 5.088 5.088 0 0 1 .007-.75 1.014 1.014 0 0 1 .421-.718 1.052 1.052 0 0 1 .831-.175 20.985 20.985 0 0 1 7.666 3.328.931.931 0 0 1 .387.606.922.922 0 0 1-.162.7l-4.259 5.88a3.108 3.108 0 0 0 .529 0 3.289 3.289 0 0 1 2.192.486c1.77 1.241 1.962 3.265.5 5.281s-3.465 2.5-5.235 1.255a3.188 3.188 0 0 1-1.181-1.881 3.694 3.694 0 0 0-.173-.5l-4.127 5.7a.951.951 0 0 1-.772.391" class="cls-1" transform="translate(-3.778 -1.079)"/>
                <path id="Fill-5" d="M45.222 27.089l5.089 3.677a1.753 1.753 0 0 1 .7 1.649 1.8 1.8 0 0 1-.7 1.172 3.419 3.419 0 0 1-1.221.561c-.454.136-.719.224-.886.46-.614.874-.34 1.74.815 2.575s2.051.813 2.666-.06a1.549 1.549 0 0 0 .141-1 3.535 3.535 0 0 1 .125-1.352 1.793 1.793 0 0 1 .867-1.05c.054-.027.109-.052.164-.073a1.7 1.7 0 0 1 1.59.2l5.262 3.8a18.891 18.891 0 0 0 2.234-5.1 2.668 2.668 0 0 1-1.562-.489 3.213 3.213 0 0 1-1.438-2.653 4.672 4.672 0 0 1 .946-2.673 4.351 4.351 0 0 1 2.661-1.852 19.552 19.552 0 0 0-7.032-12.613l-3.622 5.151a2.956 2.956 0 0 0 .518 0 3.145 3.145 0 0 1 2.147.49c1.733 1.252 1.921 3.293.492 5.326s-3.393 2.518-5.127 1.266a3.233 3.233 0 0 1-1.157-1.9 3.782 3.782 0 0 0-.169-.5zm14.851 12.828a.918.918 0 0 1-.538-.175l-5.85-4.228a3.188 3.188 0 0 0 0 .525 3.258 3.258 0 0 1-.483 2.176c-1.234 1.758-3.247 1.949-5.253.5s-2.484-3.441-1.249-5.2a3.174 3.174 0 0 1 1.872-1.173 3.66 3.66 0 0 0 .493-.171l-5.67-4.1a.949.949 0 0 1-.217-1.312l4.165-5.925a1.75 1.75 0 0 1 1.445-.723 1.634 1.634 0 0 1 .182.015 1.767 1.767 0 0 1 1.155.7 3.515 3.515 0 0 1 .554 1.238c.134.461.221.729.454.9.862.622 1.716.344 2.539-.826s.8-2.08-.058-2.7a1.494 1.494 0 0 0-.985-.142 3.4 3.4 0 0 1-1.334-.126 1.78 1.78 0 0 1-1.036-.879 1.75 1.75 0 0 1-.072-.167 1.764 1.764 0 0 1 .2-1.612l4.305-6.122a.919.919 0 0 1 1.288-.224 21.4 21.4 0 0 1 8.66 15.494 1.034 1.034 0 0 1-.309.81.977.977 0 0 1-.825.247 2.177 2.177 0 0 0-1.97 1.1 2.867 2.867 0 0 0-.6 1.568 1.336 1.336 0 0 0 .66 1.135 1.408 1.408 0 0 0 .915.132 5.112 5.112 0 0 1 .747.007 1 1 0 0 1 .712.416 1.046 1.046 0 0 1 .176.827 20.807 20.807 0 0 1-3.3 7.611.925.925 0 0 1-.6.384.892.892 0 0 1-.155.013z" class="cls-1" transform="translate(-23.209 -5.397)"/>
                <path id="Fill-7" d="M1.988 34.039a19.134 19.134 0 0 0 6.926 12.585l3.547-5.02a3.178 3.178 0 0 0-.527 0 3.207 3.207 0 0 1-2.182-.5c-1.762-1.267-1.954-3.331-.5-5.387s3.449-2.548 5.212-1.281a3.267 3.267 0 0 1 1.176 1.919 3.851 3.851 0 0 0 .172.506l3.562-5.04L14.2 28.1a1.772 1.772 0 0 1-.725-1.482 1.724 1.724 0 0 1 .015-.187 1.82 1.82 0 0 1 .707-1.185 3.486 3.486 0 0 1 1.242-.567c.462-.137.731-.227.9-.466.624-.884.346-1.76-.828-2.6A2.851 2.851 0 0 0 13.949 21h-.01a1.331 1.331 0 0 0-1.138.677 1.557 1.557 0 0 0-.143 1.01 3.562 3.562 0 0 1-.126 1.368 1.815 1.815 0 0 1-.881 1.062c-.055.028-.11.052-.167.074a1.734 1.734 0 0 1-1.616-.2l-5.137-3.697a21.907 21.907 0 0 0-2.117 4.99 2.72 2.72 0 0 1 1.582.495 3.245 3.245 0 0 1 1.462 2.684 4.711 4.711 0 0 1-.962 2.7 4.422 4.422 0 0 1-2.708 1.874zm7.135 14.878a.935.935 0 0 1-.541-.172A21.036 21.036 0 0 1 0 33.245a1.042 1.042 0 0 1 .314-.818.992.992 0 0 1 .839-.25 2.211 2.211 0 0 0 2-1.115 2.888 2.888 0 0 0 .611-1.586 1.349 1.349 0 0 0-.664-1.149 1.433 1.433 0 0 0-.93-.134 5.28 5.28 0 0 1-.759-.007 1.024 1.024 0 0 1-.725-.421 1.054 1.054 0 0 1-.179-.836 22.123 22.123 0 0 1 3.23-7.552.938.938 0 0 1 1.3-.2L10.77 23.3a3.233 3.233 0 0 0 0-.531 3.282 3.282 0 0 1 .491-2.2 3.2 3.2 0 0 1 2.661-1.475 4.618 4.618 0 0 1 2.68.97c2.038 1.466 2.525 3.48 1.27 5.257a3.228 3.228 0 0 1-1.9 1.187 3.732 3.732 0 0 0-.5.173l5.765 4.145a.956.956 0 0 1 .22 1.327l-4.235 5.993a1.772 1.772 0 0 1-1.47.731 1.621 1.621 0 0 1-.184-.015 1.8 1.8 0 0 1-1.175-.713 3.55 3.55 0 0 1-.562-1.252c-.136-.466-.225-.738-.462-.908-.876-.629-1.744-.348-2.581.836s-.816 2.1.059 2.734a1.526 1.526 0 0 0 1 .144 3.465 3.465 0 0 1 1.357.128 1.806 1.806 0 0 1 1.053.888 1.9 1.9 0 0 1 .076.175 1.775 1.775 0 0 1-.2 1.625l-4.242 6a.94.94 0 0 1-.769.4z" class="cls-1" transform="translate(0 -10.255)"/>
                <path id="Fill-9" d="M40.658 102.523H23.435A2.4 2.4 0 0 1 21 100.159v-.795A2.4 2.4 0 0 1 23.435 97h5.981a.9.9 0 1 1 0 1.807h-5.981a.567.567 0 0 0-.575.558v.795a.567.567 0 0 0 .575.558h17.223a.567.567 0 0 0 .575-.558v-.795a.567.567 0 0 0-.575-.558h-5.981a.9.9 0 1 1 0-1.807h5.981a2.4 2.4 0 0 1 2.435 2.364v.795a2.4 2.4 0 0 1-2.435 2.364" class="cls-1" transform="translate(-11.334 -52.354)"/>
                <path id="Fill-11" d="M27.4 107.807a.563.563 0 0 0-.567.557v.794a.563.563 0 0 0 .567.558h14.07a.563.563 0 0 0 .566-.558v-.794a.563.563 0 0 0-.566-.557zm14.069 3.717H27.4a2.386 2.386 0 0 1-2.4-2.365v-.794A2.386 2.386 0 0 1 27.4 106h14.07a2.385 2.385 0 0 1 2.4 2.364v.794a2.386 2.386 0 0 1-2.4 2.365z" class="cls-1" transform="translate(-13.493 -57.212)"/>
                <path id="Fill-13" d="M28.472 114.807a.571.571 0 0 0-.583.558v.795a.571.571 0 0 0 .583.558h12.086a.571.571 0 0 0 .583-.558v-.795a.571.571 0 0 0-.583-.558zm12.086 3.716H28.472A2.423 2.423 0 0 1 26 116.159v-.795A2.423 2.423 0 0 1 28.472 113h12.086a2.423 2.423 0 0 1 2.472 2.364v.795a2.423 2.423 0 0 1-2.472 2.364z" class="cls-1" transform="translate(-14.033 -60.99)"/>
                <path id="Fill-15" d="M19.667 91.586a.958.958 0 0 1-1.012-.893v-5.53a2.345 2.345 0 0 0-1.26-2.563.825.825 0 0 1-.185-1.252 1.1 1.1 0 0 1 1.419-.163 3.982 3.982 0 0 1 2.051 3.992v5.516a.958.958 0 0 1-1.012.893" class="cls-1" transform="translate(-9.176 -43.719)"/>
                <path id="Fill-17" d="M66.892 86.649a.915.915 0 0 1-.889-.94v-5.8a4.514 4.514 0 0 1 1.8-4.2 18.689 18.689 0 0 0 3.926-4.276.859.859 0 0 1 1.229-.277.972.972 0 0 1 .262 1.3 20.341 20.341 0 0 1-4.34 4.744 2.642 2.642 0 0 0-1.1 2.69v5.819a.915.915 0 0 1-.889.94" class="cls-1" transform="translate(-35.623 -38.321)"/>
                <path id="Fill-19" d="M120.232 14.591h4.744a.476.476 0 0 1 .545.531.482.482 0 0 1-.545.551h-4.744v4.683q0 .531-.605.531c-.424 0-.626-.177-.626-.531V8.649c0-.452.2-.649.667-.649h5.692a.476.476 0 0 1 .545.532.482.482 0 0 1-.545.551h-5.127z" class="cls-1" transform="translate(-64.229 -4.318)"/>
                <path id="Fill-21" d="M138.154 2.176c0-.262.191-.4.612-.705L140.375.3c.287-.2.44-.3.613-.3.325 0 .5.343.5.6 0 .242-.153.4-1.4 1.229-1.11.746-1.321.847-1.493.847a.481.481 0 0 1-.44-.5zm3.6 9.916L139.322 5.3l-2.469 6.792zm2.833 4.575c0 .222-.134.363-.536.363a.636.636 0 0 1-.708-.5l-1.206-3.346h-5.687l-1.225 3.346a.648.648 0 0 1-.708.5c-.383 0-.517-.141-.517-.363a1.261 1.261 0 0 1 .115-.463l4.4-11.81c.192-.5.383-.685.842-.685.44 0 .651.182.823.685l4.31 11.806a1.8 1.8 0 0 1 .1.463z" class="cls-1" transform="translate(-72.325)"/>
                <path id="Fill-23" d="M170.568 17.649a2.482 2.482 0 0 0-1.847-2.472 5.905 5.905 0 0 0-1.865-.281h-1.714v5.246a10.333 10.333 0 0 0 1.6.121c2.818 0 3.827-1.086 3.827-2.613m-5.426-8.443v4.683h1.675a5.092 5.092 0 0 0 1.714-.261 2.246 2.246 0 0 0 1.561-2.211c0-1.407-1.009-2.332-3.427-2.332a9.9 9.9 0 0 0-1.523.12m6.682 8.5c0 2.151-1.6 3.638-5.1 3.638a9.978 9.978 0 0 1-2.056-.181c-.669-.157-.669-.479-.669-.963V9.146c0-.5 0-.784.666-.965A9.832 9.832 0 0 1 166.722 8c3.1 0 4.626 1.267 4.626 3.3a2.97 2.97 0 0 1-2.646 3.035c2.018.362 3.122 1.588 3.122 3.377" class="cls-1" transform="translate(-88.517 -4.318)"/>
                <path id="Fill-25" d="M187.408 15.178c2.86 0 4.259-1.149 4.259-3.085 0-2.057-1.564-3-3.93-3a9.623 9.623 0 0 0-1.5.121v5.908a11.364 11.364 0 0 0 1.173.061M193.745 21c0 .221-.164.343-.576.343a1 1 0 0 1-.988-.585l-3.333-4.617a11.108 11.108 0 0 1-1.482.1c-.226 0-.823-.02-1.132-.06V20.8q0 .544-.617.544T185 20.8V9.149c0-.524 0-.786.721-.968A10.018 10.018 0 0 1 187.758 8C190.885 8 193 9.371 193 12.053a3.839 3.839 0 0 1-2.9 3.811l3.271 4.456c.288.383.371.524.371.685" class="cls-1" transform="translate(-99.851 -4.318)"/>
                <path id="Fill-27" d="M210.381 20.8q0 .546-.679.546c-.475 0-.7-.182-.7-.546V8.546c0-.364.227-.546.7-.546q.68 0 .679.546z" class="cls-1" transform="translate(-112.805 -4.318)"/>
                <path id="Fill-29" d="M224.151 20.259a4.738 4.738 0 0 0 2.617-.733c.419-.277.619-.5.818-.5a.613.613 0 0 1 .539.554c0 .317-.4.594-.759.832a5.727 5.727 0 0 1-3.255.931c-3.715 0-6.112-2.713-6.112-6.733C218 10.574 220.417 8 224.091 8a6.043 6.043 0 0 1 3.276.911c.5.3.759.575.759.812a.635.635 0 0 1-.559.574c-.18 0-.4-.218-.819-.475a4.946 4.946 0 0 0-2.636-.733c-2.876 0-4.834 2.04-4.834 5.466 0 3.465 2 5.7 4.873 5.7" class="cls-1" transform="translate(-117.662 -4.318)"/>
                <path id="Fill-31" d="M250.753 16.4l-2.432-6.8-2.468 6.8zm2.833 4.584c0 .222-.134.364-.536.364a.636.636 0 0 1-.708-.5l-1.206-3.352h-5.686l-1.225 3.352a.648.648 0 0 1-.708.5c-.383 0-.517-.141-.517-.364a1.274 1.274 0 0 1 .115-.464l4.4-11.833c.191-.5.383-.687.842-.687.44 0 .651.182.823.687l4.31 11.833a1.819 1.819 0 0 1 .1.464z" class="cls-1" transform="translate(-131.156 -4.318)"/>
                <path id="Fill-33" d="M283.873 20.262c3.9 0 5.965-1.95 5.965-5.589 0-3.679-2.1-5.588-5.965-5.588a12.009 12.009 0 0 0-1.665.12v10.937a11.587 11.587 0 0 0 1.665.121m0 1.085a11.214 11.214 0 0 1-2.18-.181c-.694-.161-.694-.482-.694-.945V9.126c0-.422 0-.8.694-.945a12.994 12.994 0 0 1 2.22-.181c4.637 0 7.213 2.332 7.213 6.634 0 4.382-2.695 6.714-7.253 6.714" class="cls-1" transform="translate(-151.666 -4.318)"/>
                <path id="Fill-35" d="M314.891 13.631a.535.535 0 0 1 0 1.071h-4.713v5.1h5.655a.471.471 0 0 1 .531.535c0 .377-.177.555-.531.555h-6.185c-.451 0-.648-.2-.648-.654V8.654c0-.456.2-.654.648-.654h5.99a.471.471 0 0 1 .53.535c0 .377-.177.555-.53.555h-5.459v4.54z" class="cls-1" transform="translate(-166.778 -4.318)"/>
                <path id="Fill-37" d="M118.3 56.287c0-2 1.523-3.287 3.818-3.287a4.926 4.926 0 0 1 2.84.832c.414.277.6.5.6.733a.6.6 0 0 1-.508.594c-.169 0-.4-.2-.639-.356a4.073 4.073 0 0 0-2.314-.713c-1.636 0-2.633.871-2.633 2.119 0 3.07 6.358 2.277 6.358 6.535 0 2.277-1.806 3.6-4.119 3.6a4.963 4.963 0 0 1-3.141-1.05c-.357-.277-.564-.535-.564-.753a.606.606 0 0 1 .527-.594c.188 0 .3.139.715.436a3.971 3.971 0 0 0 2.483.871c1.655 0 2.916-.95 2.916-2.436 0-3.347-6.339-2.515-6.339-6.535" class="cls-1" transform="translate(-63.689 -28.606)"/>
                <path id="Fill-39" d="M145.2 65.278c2.971 0 4.919-2.218 4.919-5.6s-1.947-5.6-4.919-5.6-4.919 2.218-4.919 5.6 1.948 5.6 4.919 5.6m0-12.278c3.754 0 6.224 2.654 6.224 6.674s-2.47 6.674-6.224 6.674-6.2-2.654-6.2-6.674S141.45 53 145.2 53" class="cls-1" transform="translate(-75.023 -28.606)"/>
                <path id="Fill-41" d="M171.231 60.591h4.744a.476.476 0 0 1 .545.531.482.482 0 0 1-.545.551h-4.744v4.683q0 .531-.606.532c-.424 0-.626-.177-.626-.532V54.649c0-.452.2-.649.666-.649h5.693a.476.476 0 0 1 .545.531.482.482 0 0 1-.545.551h-5.128z" class="cls-1" transform="translate(-91.755 -29.146)"/>
                <path id="Fill-43" d="M194.678 66.356c0 .354-.2.532-.615.532s-.615-.177-.615-.532V55.082h-3.911c-.357 0-.536-.177-.536-.551a.472.472 0 0 1 .536-.531h9.054a.471.471 0 0 1 .536.531c0 .374-.178.551-.536.551h-3.911z" class="cls-1" transform="translate(-102.01 -29.146)"/>
                <path id="Fill-45" d="M218.006 65.682c-.144.444-.308.666-.862.666a.736.736 0 0 1-.862-.666l-3.221-11.854A3.469 3.469 0 0 1 213 53.4c0-.2.123-.4.615-.4a.642.642 0 0 1 .739.585l2.872 11.086 3.489-10.42a.761.761 0 0 1 .841-.646.773.773 0 0 1 .841.646l3.365 10.42 3-11.086c.1-.4.246-.585.7-.585s.575.182.575.4a1.637 1.637 0 0 1-.062.424l-3.3 11.854a.757.757 0 0 1-.861.666.79.79 0 0 1-.883-.666l-3.385-10.42z" class="cls-1" transform="translate(-114.964 -28.606)"/>
                <path id="Fill-47" d="M257.753 61.4l-2.431-6.8-2.469 6.8zm2.833 4.584c0 .222-.134.364-.536.364a.637.637 0 0 1-.708-.505l-1.206-3.352h-5.686l-1.225 3.352a.648.648 0 0 1-.708.505c-.383 0-.517-.142-.517-.364a1.261 1.261 0 0 1 .115-.464l4.4-11.833c.192-.5.383-.687.842-.687.44 0 .651.182.823.687l4.31 11.833a1.794 1.794 0 0 1 .1.464z" class="cls-1" transform="translate(-134.934 -28.606)"/>
                <path id="Fill-49" d="M280.408 60.178c2.86 0 4.259-1.149 4.259-3.085 0-2.057-1.564-3-3.93-3a9.623 9.623 0 0 0-1.5.121v5.908a11.49 11.49 0 0 0 1.173.06M286.745 66c0 .222-.165.343-.576.343a1 1 0 0 1-.988-.585l-3.333-4.617a11.106 11.106 0 0 1-1.481.1 12 12 0 0 1-1.132-.06V65.8q0 .544-.617.545T278 65.8V54.149c0-.524 0-.786.721-.968a10.016 10.016 0 0 1 2.036-.181c3.128 0 5.247 1.371 5.247 4.053a3.839 3.839 0 0 1-2.9 3.811l3.272 4.456c.288.383.371.524.371.685" class="cls-1" transform="translate(-150.046 -28.606)"/>
                <path id="Fill-51" d="M307.891 59.631a.535.535 0 0 1 0 1.07h-4.713v5.1h5.656a.471.471 0 0 1 .53.535c0 .376-.176.555-.53.555h-6.186c-.451 0-.648-.2-.648-.654V54.654c0-.456.2-.654.648-.654h5.99a.471.471 0 0 1 .53.535c0 .377-.177.555-.53.555h-5.46v4.54z" class="cls-1" transform="translate(-163 -29.146)"/>
                <path id="Fill-53" d="M118.3 102.287c0-2 1.523-3.287 3.818-3.287a4.926 4.926 0 0 1 2.84.832c.414.277.6.495.6.733a.605.605 0 0 1-.508.594c-.169 0-.4-.2-.639-.356a4.071 4.071 0 0 0-2.314-.713c-1.636 0-2.633.871-2.633 2.119 0 3.07 6.358 2.277 6.358 6.535 0 2.278-1.806 3.6-4.119 3.6a4.961 4.961 0 0 1-3.141-1.05c-.357-.277-.564-.535-.564-.752a.605.605 0 0 1 .527-.594c.188 0 .3.139.715.436a3.97 3.97 0 0 0 2.483.872c1.655 0 2.916-.951 2.916-2.436 0-3.347-6.339-2.515-6.339-6.536" class="cls-1" transform="translate(-63.689 -53.434)"/>
                <path id="Fill-55" d="M146.891 103.631a.535.535 0 0 1 0 1.07h-4.713v5.1h5.656a.471.471 0 0 1 .53.535c0 .376-.177.555-.53.555h-6.186c-.452 0-.648-.2-.648-.654V98.654c0-.456.2-.654.648-.654h5.989a.471.471 0 0 1 .53.536c0 .376-.177.555-.53.555h-5.459v4.54z" class="cls-1" transform="translate(-76.103 -52.894)"/>
                <path id="Fill-57" d="M163.176 111.8c0 .364-.2.546-.578.546q-.6 0-.6-.546V99.708c0-.485.259-.708.778-.708a1.174 1.174 0 0 1 1.1.687l7.076 10.82V99.546q0-.546.6-.546c.379 0 .578.182.578.546v12.094a.625.625 0 0 1-.718.708 1.174 1.174 0 0 1-1.056-.728l-7.176-10.9z" class="cls-1" transform="translate(-87.437 -53.434)"/>
                <path id="Fill-59" d="M192.381 111.8q0 .546-.679.546c-.476 0-.7-.182-.7-.546V99.546c0-.364.226-.546.7-.546q.679 0 .679.546z" class="cls-1" transform="translate(-103.089 -53.434)"/>
                <path id="Fill-61" d="M204.2 111.278c2.971 0 4.919-2.218 4.919-5.6s-1.948-5.6-4.919-5.6-4.919 2.218-4.919 5.6 1.948 5.6 4.919 5.6m0-12.278c3.754 0 6.224 2.653 6.224 6.673s-2.47 6.674-6.224 6.674-6.2-2.654-6.2-6.674S200.449 99 204.2 99" class="cls-1" transform="translate(-106.868 -53.434)"/>
                <path id="Fill-63" d="M233.408 106.178c2.86 0 4.259-1.149 4.259-3.084 0-2.057-1.564-3-3.93-3a9.6 9.6 0 0 0-1.5.121v5.907a11.369 11.369 0 0 0 1.173.06m6.335 5.818c0 .222-.164.343-.576.343a1 1 0 0 1-.988-.585l-3.333-4.617a11.142 11.142 0 0 1-1.481.1 12 12 0 0 1-1.132-.06v4.619q0 .544-.617.544T231 111.8v-11.651c0-.524 0-.786.721-.968a10.045 10.045 0 0 1 2.037-.181c3.128 0 5.247 1.371 5.247 4.053a3.839 3.839 0 0 1-2.9 3.811l3.271 4.456c.288.383.371.524.371.685" class="cls-1" transform="translate(-124.679 -53.434)"/>
            </g>
        </g>
    </g>
</svg>
