<svg xmlns="http://www.w3.org/2000/svg" width="98" height="82.574" viewBox="0 0 98 82.574">
    <defs>
        <style>
            .cls-1{fill:#dfe3e9}
        </style>
    </defs>
    <path id="camera" d="M168.926 148.7H153.5l-3.675-10.3a3.638 3.638 0 0 0-3.425-2.4h-34.8a3.623 3.623 0 0 0-3.414 2.4l-3.686 10.3H89.074A9.072 9.072 0 0 0 80 157.778V209.5a9.072 9.072 0 0 0 9.074 9.074h79.852A9.072 9.072 0 0 0 178 209.5v-51.722a9.072 9.072 0 0 0-9.074-9.078zm.907 60.8a.91.91 0 0 1-.907.907H89.074a.91.91 0 0 1-.907-.907v-51.722a.91.91 0 0 1 .907-.907h21.177l1.94-5.422 2.6-7.282H143.2l2.6 7.282 1.94 5.422h21.188a.91.91 0 0 1 .907.907zM129 164.13a18.148 18.148 0 1 0 18.148 18.148A18.143 18.143 0 0 0 129 164.13zm0 29.037a10.889 10.889 0 1 1 10.889-10.889A10.892 10.892 0 0 1 129 193.167z" class="cls-1" transform="translate(-80 -136)"/>
</svg>
